<svg width="64" height="64" viewBox="0 0 64 64" fill="none" xmlns="http://www.w3.org/2000/svg">
  <defs>
    <!-- 渐变定义 -->
    <linearGradient id="magicGradient" x1="0%" y1="0%" x2="100%" y2="100%">
      <stop offset="0%" style="stop-color:#6366F1;stop-opacity:1" />
      <stop offset="50%" style="stop-color:#8B5CF6;stop-opacity:1" />
      <stop offset="100%" style="stop-color:#EC4899;stop-opacity:1" />
    </linearGradient>
    
    <linearGradient id="sparkleGradient" x1="0%" y1="0%" x2="100%" y2="100%">
      <stop offset="0%" style="stop-color:#F59E0B;stop-opacity:1" />
      <stop offset="100%" style="stop-color:#EF4444;stop-opacity:1" />
    </linearGradient>
  </defs>
  
  <!-- 背景圆形 -->
  <circle cx="32" cy="32" r="30" fill="url(#magicGradient)" stroke="#ffffff" stroke-width="2"/>
  
  <!-- AI神经网络节点 -->
  <circle cx="18" cy="20" r="2" fill="#ffffff" opacity="0.8"/>
  <circle cx="32" cy="16" r="2" fill="#ffffff" opacity="0.8"/>
  <circle cx="46" cy="20" r="2" fill="#ffffff" opacity="0.8"/>
  <circle cx="22" cy="32" r="2" fill="#ffffff" opacity="0.8"/>
  <circle cx="42" cy="32" r="2" fill="#ffffff" opacity="0.8"/>
  <circle cx="18" cy="44" r="2" fill="#ffffff" opacity="0.8"/>
  <circle cx="32" cy="48" r="2" fill="#ffffff" opacity="0.8"/>
  <circle cx="46" cy="44" r="2" fill="#ffffff" opacity="0.8"/>
  
  <!-- 连接线 -->
  <line x1="18" y1="20" x2="32" y2="16" stroke="#ffffff" stroke-width="1" opacity="0.4"/>
  <line x1="32" y1="16" x2="46" y2="20" stroke="#ffffff" stroke-width="1" opacity="0.4"/>
  <line x1="18" y1="20" x2="22" y2="32" stroke="#ffffff" stroke-width="1" opacity="0.4"/>
  <line x1="46" y1="20" x2="42" y2="32" stroke="#ffffff" stroke-width="1" opacity="0.4"/>
  <line x1="22" y1="32" x2="32" y2="48" stroke="#ffffff" stroke-width="1" opacity="0.4"/>
  <line x1="42" y1="32" x2="32" y2="48" stroke="#ffffff" stroke-width="1" opacity="0.4"/>
  <line x1="18" y1="44" x2="32" y2="48" stroke="#ffffff" stroke-width="1" opacity="0.4"/>
  <line x1="46" y1="44" x2="32" y2="48" stroke="#ffffff" stroke-width="1" opacity="0.4"/>
  
  <!-- 中心魔法棒/画笔 -->
  <path d="M28 28 L36 36 M28 32 L32 28 M32 36 L36 32" stroke="#ffffff" stroke-width="2" stroke-linecap="round"/>
  
  <!-- 魔法星星 -->
  <path d="M12 12 L14 16 L18 14 L16 18 L12 16 L10 18 L8 14 L10 16 Z" fill="url(#sparkleGradient)" opacity="0.9"/>
  <path d="M52 10 L53 12 L55 11 L54 13 L52 12 L50 13 L49 11 L50 12 Z" fill="url(#sparkleGradient)" opacity="0.8"/>
  <path d="M50 50 L52 54 L56 52 L54 56 L50 54 L48 56 L46 52 L48 54 Z" fill="url(#sparkleGradient)" opacity="0.9"/>
  <path d="M8 48 L9 50 L11 49 L10 51 L8 50 L6 51 L5 49 L6 50 Z" fill="url(#sparkleGradient)" opacity="0.7"/>
</svg>
